<?xml version="1.0" standalone="no"?>
<!DOCTYPE svg PUBLIC "-//W3C//DTD SVG 1.1//EN" "http://www.w3.org/Graphics/SVG/1.1/DTD/svg11.dtd" >
<svg xmlns="http://www.w3.org/2000/svg">
<metadata>
This is a custom SVG font generated by IcoMoon.
<iconset grid="16"></iconset>
</metadata>
<defs>
<font id="horisen" horiz-adv-x="512" >
<font-face units-per-em="512" ascent="480" descent="-32" />
<missing-glyph horiz-adv-x="512" />
<glyph class="hidden" unicode="&#xf000;" d="M0,480L 512 -32L0 -32 z" horiz-adv-x="0" />
<glyph unicode="&#xe000;" d="M 160,288A96,96 540 1 1 352,288A96,96 540 1 1 160,288zM0-32c0,40.96, 15.616,81.152, 46.848,112.384C 78.112,111.616, 119.040,127.264, 160,127.264l 192,0 c 40.96,0, 81.888-15.616, 113.152-46.848
	C 496.384,49.152, 512,8.96, 512-32L0-32 z"  />
<glyph unicode="&#xe001;" d="M 416.256,400.256L 240,224L 416.256,47.744L 466.624,98.080L 340.704,224L 466.624,349.92 		zM 224.256,400.256L 48,224L 224.256,47.744L 274.624,98.080L 148.704,224L 274.624,349.92 		z"  />
<glyph unicode="&#xe002;" d="M 95.744,400.256L 272,224L 95.744,47.744L 45.376,98.080L 171.296,224L 45.376,349.92 		zM 287.744,400.256L 464,224L 287.744,47.744L 237.376,98.080L 363.296,224L 237.376,349.92 		z"  />
<glyph unicode="&#xe003;" d="M 79.744,63.744L 256,240L 432.256,63.744L 381.92,13.376L 256,139.296L 130.080,13.376 		zM 79.744,255.744L 256,432L 432.256,255.744L 381.92,205.376L 256,331.296L 130.080,205.376 		z"  />
<glyph unicode="&#xe004;" d="M 79.744,384.256L 256,208L 432.256,384.256L 381.92,434.624L 256,308.704L 130.080,434.624 		zM 79.744,192.256L 256,16L 432.256,192.256L 381.92,242.624L 256,116.704L 130.080,242.624 		z"  />
<glyph unicode="&#xe005;" d="M 352,416L 160,224L 352,32 	z"  />
<glyph unicode="&#xe006;" d="M 160,416L 352,224L 160,32 	z"  />
<glyph unicode="&#xe007;" d="M 448,128L 256,320L 64,128 	z"  />
<glyph unicode="&#xe008;" d="M 448,320L 256,128L 64,320 	z"  />
<glyph unicode="&#xe009;" d="M 318.944,400.256L 142.688,224L 318.944,47.744L 369.312,98.080L 243.392,224L 369.312,349.92 	z"  />
<glyph unicode="&#xe00a;" d="M 193.056,400.256L 369.312,224L 193.056,47.744L 142.688,98.080L 268.608,224L 142.688,349.92 	z"  />
<glyph unicode="&#xe00b;" d="M 79.68,161.056L 255.936,337.312L 432.192,161.056L 381.856,110.688L 255.936,236.608L 130.016,110.688 	z"  />
<glyph unicode="&#xe00c;" d="M 432.256,286.944L 256,110.688L 79.744,286.944L 130.080,337.312L 256,211.392L 381.92,337.312 	z"  />
<glyph unicode="&#xe00d;" d="M 256,416L 64,224L 256,32L 256,128L 416,128L 416,319.936L 256,319.936 	z"  />
<glyph unicode="&#xe00e;" d="M 256,32L 448,224L 256,416L 256,320L 96,320L 96,128L 256,128 	z"  />
<glyph unicode="&#xe00f;" d="M 448,224L 256,416L 64,224L 160,224L 160,64L 352,64L 352,224 	z"  />
<glyph unicode="&#xe010;" d="M 64,224L 256,32L 448,224L 351.968,224L 351.968,384L 160,384L 160,224 	z"  />
<glyph unicode="&#xe015;" d="M 288,416L 224,416L 224,256L 64,256L 64,192L 224,192L 224,32L 288,32L 288,192L 448,192L 448,256L 288,256 	z"  />
<glyph unicode="&#xe016;" d="M 64,256L 448,256L 448,192L 64,192z"  />
<glyph unicode="&#xe017;" d="M 416,337.12L 370.752,382.4L 257.632,269.248L 144.48,382.4L 99.232,337.12L 212.352,224L 99.232,110.88L 144.48,65.6L 257.632,178.752L 370.752,65.6L 416,110.88L 302.88,224 z"  />
<glyph unicode="&#xe018;" d="M 288,480L 224,480L 224,256L0,256L0,192L 224,192L 224-32L 288-32L 288,192L 512,192L 512,256L 288,256 	z"  />
<glyph unicode="&#xe019;" d="M0,256L 512,256L 512,192L0,192z"  />
<glyph unicode="&#xe01a;" d="M 414.368,427.648L 256,269.28L 97.632,427.648L 52.384,382.4L 210.752,224L 52.384,65.632L 97.632,20.384L 256,178.752L 414.368,20.384L 459.616,65.632L 301.248,224L 459.616,382.4 	z"  />
<glyph unicode="&#xe01b;" d="M 288,320L 224,320L 224,255.456L 160,255.456L 160,192L 224,192L 224,128L 288,128L 288,192L 352,192L 352,255.456L 288,255.456 zM 256,416c 105.888,0, 192-86.112, 192-192s-86.112-192-192-192s-192,86.112-192,192S 150.112,416, 256,416 M 256,480C 114.624,480,0,365.376,0,224s 114.624-256, 256-256s 256,114.624, 256,256
	S 397.376,480, 256,480L 256,480z"  />
<glyph unicode="&#xe01c;" d="M 160,256L 352,256L 352,192L 160,192zM 256,416c 105.888,0, 192-86.112, 192-192s-86.112-192-192-192s-192,86.112-192,192S 150.112,416, 256,416 M 256,480C 114.624,480,0,365.376,0,224s 114.624-256, 256-256s 256,114.624, 256,256
	S 397.376,480, 256,480L 256,480z"  />
<glyph unicode="&#xe01d;" d="M 345.376,268.128L 300.128,313.376L 254.88,268.128L 209.632,313.376L 164.352,268.128L 209.632,222.88L 164.352,177.632L 209.632,132.384L 254.88,177.632L 300.128,132.384L 345.376,177.632L 300.128,222.88 zM 253.728,413.76c 105.888,0, 192-86.112, 192-192s-86.112-192-192-192s-192,86.112-192,192S 147.84,413.76, 253.728,413.76 M 253.728,477.76c-141.376,0-256-114.624-256-256
	s 114.624-256, 256-256s 256,114.624, 256,256S 395.104,477.76, 253.728,477.76L 253.728,477.76z"  />
<glyph unicode="&#xe01e;" d="M 480,67.904l-91.104,91.104C 405.792,187.52, 416,220.448, 416,256c0,106.048-85.984,192-192,192S 32,362.048, 32,256c0-106.016, 85.984-192, 192-192
	c 35.552,0, 68.512,10.208, 96.992,27.104L 412.128,0L 480,67.904z M 224,128c-70.688,0-128,57.312-128,128s 57.312,128, 128,128s 128-57.312, 128-128
	c0-23.68-6.88-45.6-18.080-64.64c-11.072-18.72-26.528-34.208-45.28-45.28C 269.632,134.88, 247.68,128, 224,128z"  />
<glyph unicode="&#xe01f;" d="M 64,384L 448,384L 448,320L 64,320zM 64,256L 448,256L 448,192L 64,192zM 64,128L 448,128L 448,64L 64,64z"  />
<glyph unicode="&#xe020;" d="M 480.384,223.456c0,11.776-1.184,23.296-2.944,34.56l-73.888,26.272l 33.76,70.976c-13.632,18.72-30.016,35.2-48.672,48.864L 317.536,370.304
	L 291.040,444.8C 279.552,446.656, 267.936,447.84, 256,447.84c-11.424,0-22.624-1.12-33.6-2.784L 195.808,370.304L 123.872,404.544
	C 105.408,391.040, 89.12,374.816, 75.52,356.416l 34.24-72.096L 34.496,257.536C 32.768,246.4, 31.616,235.072, 31.616,223.456s 1.152-22.944, 2.88-34.048l 75.296-26.784
	l-34.24-72.096c 13.6-18.4, 29.888-34.624, 48.352-48.128l 71.936,34.208l 26.592-74.752c 10.976-1.664, 22.144-2.784, 33.6-2.784
	c 11.936,0, 23.552,1.184, 35.040,3.040l 26.496,74.496l 71.104-33.856c 18.656,13.696, 35.072,30.144, 48.672,48.864l-33.76,70.976l 73.888,26.272
	C 479.2,200.192, 480.384,211.68, 480.384,223.456z M 256,133.632c-50.016,0-90.496,40.512-90.496,90.496c0,50.016, 40.512,90.496, 90.496,90.496
	s 90.496-40.48, 90.496-90.496C 346.496,174.112, 306.016,133.632, 256,133.632z"  />
<glyph unicode="&#xe021;" d="M 177.856,135.296L 88,224L 32,168L 177.984,28L 480,364L 423.456,420 	z"  />
<glyph unicode="&#xe022;" d="M 96,320L 416,320L 416,0L 96,0zM 415.488,416L 415.488,480L 352.736,480L 352.736,416L 160,416L 160,480L 96.736,480L 96.736,416L 32,416L 32,352L 480,352L 480,416 z"  />
<glyph unicode="&#xe023;" d="M 352,64L 128,64L 128,384L 352,384L 352,448L 64,448L 64,0L 352,0 zM 288,255.904L 192,255.904L 192,192L 288,192L 288,96L 448,224.512L 288,352 z"  />
<glyph unicode="&#xe024;" d="M 160,64L 384,64L 384,384L 160,384L 160,448L 448,448L 448,0L 160,0 zM 160,255.904L 64,255.904L 64,192L 160,192L 160,96L 320,224.512L 160,352 z"  />
<glyph unicode="&#xe025;" d="M 224,480L 288,480L 288,192L 224,192zM 320,406.592l0-68.096 C 376.448,313.792, 416,257.568, 416,192c0-88.352-71.616-160-160-160s-160,71.648-160,160c0,65.568, 39.552,121.792, 96,146.496L 192,406.592 
		C 99.488,379.072, 32,293.472, 32,192c0-123.712, 100.32-224, 224-224c 123.744,0, 224,100.288, 224,224C 480,293.472, 412.512,379.072, 320,406.592z"  />
<glyph unicode="&#xe026;" d="M 415.2,292.608L 221.44,98.88C 232.64,97.184, 244,96, 256,96c 141.376,0, 224,128, 224,128S 457.12,259.136, 415.2,292.608zM 96.928,155.328l 193.696,193.76C 279.488,350.784, 268,352, 256,352C 114.624,352, 32,224, 32,224S 54.944,188.8, 96.928,155.328zM 32,48L 76.8,0L 480,403.2L 435.2,448 	z"  />
<glyph unicode="&#xe027;" d="M 256,352C 114.624,352, 32,224, 32,224s 82.624-128, 224-128s 224,128, 224,128S 397.376,352, 256,352z M 256,160.512C 220.672,160.512, 192,188.928, 192,224c0,35.072, 28.672,63.488, 64,63.488
		c 35.36,0, 64-28.416, 64-63.488C 320,188.928, 291.36,160.512, 256,160.512z"  />
<glyph unicode="&#xe011;" d="M 256,480L0,224L 64,224L 64-32L 192-32L 192,192L 320,192L 320-32L 448-32L 448,224L 512,224 z"  />
<glyph unicode="&#xe012;" d="M 288,352L 224,352L 224,256L 128,256L 128,192L 224,192L 224,96L 288,96L 288,192L 384,192L 384,256L 288,256 	z"  />
<glyph unicode="&#xe013;" d="M 128,256L 384,256L 384,192L 128,192z"  />
<glyph unicode="&#xe014;" d="M 188.128,337.12L 142.88,291.872L 210.752,224L 142.88,156.128L 188.128,110.88L 256,178.752L 323.872,110.88L 369.12,156.128L 301.248,224L 369.12,291.872L 323.872,337.12L 256,269.248 	z"  />
<glyph unicode="&#xe028;" d="M 350.944,400.256L 174.688,224L 350.944,47.744L 401.312,98.080L 275.392,224L 401.312,349.92 	zM 96,416L 160,416L 160,32L 96,32z"  />
<glyph unicode="&#xe029;" d="M 161.056,400.256L 337.312,224L 161.056,47.744L 110.688,98.080L 236.608,224L 110.688,349.92 	zM 352,416L 416,416L 416,32L 352,32z"  />
<glyph unicode="&#xe02a;" d="M 416,352l0-32 L 96,320 L 96,352 L 416,352  M 448,384L 64,384 l0-96 l 384,0 L 448,384 zM 416,224l0-32 L 96,192 L 96,224 L 416,224  M 448,256L 64,256 l0-96 l 384,0 L 448,256 L 448,256zM 416,96l0-32 L 96,64 l0,32 L 416,96  M 448,128L 64,128 l0-96 l 384,0 L 448,128 L 448,128z"  />
<glyph unicode="&#xe02b;" d="M 160,384L 448,384L 448,320L 160,320zM 160,256L 448,256L 448,192L 160,192zM 160,128L 448,128L 448,64L 160,64zM 64,384L 128,384L 128,320L 64,320zM 64,256L 128,256L 128,192L 64,192zM 64,128L 128,128L 128,64L 64,64z"  />
<glyph unicode="&#xe02e;" d="M0,317.344L 128,317.344L 128,288L0,288zM 32,256L 128,256L 128,224L 32,224zM 64,192L 128,192L 128,160L 64,160zM 160,352l0-256 l 352,0 L 512,352 L 160,352 z M 480,128L 192,128 L 192,320 l 288,0 L 480,128 zM 224,288L 256,288L 256,256L 224,256zM 256,256L 288,256L 288,224L 256,224zM 416,288L 448,288L 448,256L 416,256zM 384,256L 416,256L 416,224L 384,224zM 288,224L 384,224L 384,192L 288,192z"  />
<glyph unicode="&#xe02f;" d="M 192,384L 64,256L 192,128 	zM 256,384L 448,384L 448,320L 256,320zM 256,256L 448,256L 448,192L 256,192zM 256,128L 448,128L 448,64L 256,64z"  />
<glyph unicode="&#xe030;" d="M 352,384L 352,448L 320,448L 320,384L 192,384L 192,448L 160,448L 160,384L 64,384L 64,320L 448,320L 448,384 zM 96,288l0-288 l 320,0 L 416,288 L 96,288 z M 160,64L 128,64 L 128,256 l 32,0 L 160,64 z M 224,64L 192,64 L 192,256 l 32,0 L 224,64 z M 320,64L 288,64 L 288,256 l 32,0 L 320,64 z M 384,64l-32,0 L 352,256 l 32,0 L 384,64 z"  />
<glyph unicode="&#xe031;" d="M 378.656,128L 378.656,320 L 352,320 l0-192 l 4,0 C 352,32, 318.4,32, 272,32S 192,32, 188,128L 186.656,128 L 186.656,384 L 186.496,384 C 190.496,416.992, 216.48,424, 240,424
	c 33.152,0, 60-32.224, 60-72L 293.344,352 l0-224 l 5.344,0 c-6.592-9.76-16.032-16-26.656-16S 251.936,118.24, 245.344,128l 5.344,0 L 250.688,352 L 224,352 l0-224 l 7.264,0 
	c 8.448-18.304, 23.488-32, 40.736-32s 32.288,13.696, 40.736,32L 320,128 L 320,352 c0,48-35.84,96-80,96C 205.856,448, 176.896,419.232, 165.408,384L 160,384 l0-288 l 4.576,0 
	c 13.184-51.68, 56.032-96, 107.424-96c 61.856,0, 112,64, 112,128L 378.656,128 z"  />
<glyph unicode="&#xe032;" d="M 352,352L 288,352L 288,256L 192,256L 192,192L 288,192L 288,96L 352,96L 352,192L 448,192L 448,256L 352,256 	zM 64,384L 128,384L 128,320L 64,320zM 64,256L 128,256L 128,192L 64,192zM 64,128L 128,128L 128,64L 64,64z"  />
<glyph unicode="&#xe02c;" d="M 413.312,192C 352,200.256, 332.288,227.808, 332.288,227.808c-14.688-35.68-63.904-72.32-79.584-72.32c-16.128,0-60.768,34.976-79.552,72.32
		c0,0-18.432-27.552-81.92-35.808C 34.336,184.64,0,117.248,0,23.328l0-34.208 C0-23.488, 144.032-32, 152.608-32l 199.36,0 c 8.544,0, 152.576,7.872, 152.576,21.088
		l0,34.208 C 504.544,125.984, 463.456,185.248, 413.312,192zM 160.096,296.672c 1.216,0.096, 2.24,0.8, 3.264,1.856C 176.32,248.448, 211.36,206.784, 252.672,206.784c 41.056,0, 75.968,41.152, 89.12,90.88
		c 0.672-0.448, 1.344-0.768, 2.080-0.864c 6.528-0.672, 13.504,14.24, 15.52,33.376c 2.048,19.136-1.6,35.2-8.128,35.872
		c-1.312,0.16-2.624-0.48-3.936-1.504c-0.544,33.664-3.84,69.12-24.128,86.432C 308.096,463.904, 272.32,471.424, 252.672,471.456
		c-19.616,0-55.36-7.552-70.496-20.512c-20.224-17.28-23.552-52.608-24.16-86.112C 156.896,365.664, 155.712,366.208, 154.56,366.112
		C 148,365.6, 143.904,349.632, 145.472,330.464C 146.976,311.296, 153.568,296.16, 160.096,296.672z"  />
<glyph unicode="&#xe02d;" d="M 338.72,191.296C 338.752,191.488, 338.912,191.776, 338.944,192C 338.944,192, 335.424,192.64, 338.72,191.296zM 384,177.312c-30.88,8.928-41.856,12.544-45.28,13.984C 332.448,155.936, 274.656,96, 258.976,96C 242.752,96, 201.76,153.44, 192,192
		c0,0, 1.248,4-64-14.688c-55.392-15.904-96-59.296-96-153.632l0-34.432 c0-12.64, 117.824-21.184, 126.368-21.184l 200.32,0 
		c 8.64,0, 121.312,7.936, 121.312,21.184l0,34.4 C 480,126.784, 432.8,163.168, 384,177.312zM 192.672,254.336c 15.968-22.848, 42.88-49.216, 66.24-49.216s 50.176,26.272, 66.112,48.992c 17.44,3.2, 79.328,17.952, 58.944,21.984
		C 347.488,283.328, 361.92,310.368, 352,384c-6.464,48.096-20.64,76-65.824,76c-9.664,0-17.504-0.064-23.968-5.056
		C 255.744,459.936, 247.904,460, 238.24,460C 185.504,460, 168.512,433.344, 160,384C 147.36,310.816, 170.464,283.328, 133.984,276.096
		C 114.016,272.16, 173.824,258.176, 192.672,254.336z"  />
<glyph unicode="&#x20;" horiz-adv-x="256" />
</font>
</defs>
</svg>
